<?xml version="1.0"?>
<svg xmlns:rdf="http://www.w3.org/1999/02/22-rdf-syntax-ns#" xmlns="http://www.w3.org/2000/svg" xmlns:cc="http://web.resource.org/cc/" xmlns:xlink="http://www.w3.org/1999/xlink" xmlns:dc="http://purl.org/dc/elements/1.1/" xmlns:svg="http://www.w3.org/2000/svg" id="Layer_1" style="enable-background:new 0 0 363.054 226.962" xml:space="preserve" viewBox="0 0 363.054 226.962" version="1.1" y="0px" x="0px">
<path clip-rule="evenodd" d="m217.56 29.702c-5.371 0.484-3.767-8.082-5.619-13.245-0.878-2.448-2.935-5.326-4.415-7.225-2.316-2.971-5.32-4.749-8.027-6.823v-1.204c0.357-0.312 0.906-0.432 1.605-0.401 3.21 2.094 5.314 4.411 8.027 7.224 1.771 1.836 5.171 6.716 6.021 10.034 0.597 2.329 0.078 4.878 0.803 7.626 0.31 1.186 1.64 2.531 1.61 4.014z" fill-rule="evenodd"/>
<path clip-rule="evenodd" d="m33.735 45.355c-1.07 6.154-2.438 12.011-7.626 14.047 1.822 2.11 5.829 10.068 2.408 14.048-2.319-0.323-2.319-2.758-3.211-4.014-4.515-6.361-13.266-8.248-24.483-8.83-0.232-1.303 0.273-1.867 0.401-2.81 12.304-0.356 23.396-5.429 31.306-12.442 0.402 0.001 0.803 0.001 1.205 0.001z" fill-rule="evenodd"/>
<path clip-rule="evenodd" d="m215.15 67.832c1.385 1.242 1.114 2.613 0.401 4.415-1.588-1.088-4.823-0.528-4.415-3.612 1.47-0.193 2.26-0.197 4.01-0.803z" fill-rule="evenodd"/>
<path clip-rule="evenodd" d="m215.15 73.451c0.322 1.392-0.598 1.542-0.401 2.809-1.571 0.233-2.33-0.345-3.211-0.802 0.57-1.301 1.49-2.25 3.61-2.007z" fill-rule="evenodd"/>
<path clip-rule="evenodd" d="m214.75 76.661c2.536 0.604 2.185 6.023 1.605 8.429-2.412 0.475-5.582 0.14-8.027-1.204 0.92-3.626 5.35-3.745 6.42-7.225z" fill-rule="evenodd"/>
<path clip-rule="evenodd" d="m300.24 81.076c0.648-0.113 0.691 0.379 1.204 0.401-0.241 6.481 0.51 11.906 2.408 16.456 1.033 2.476 3.72 4.735 2.81 7.625-3.448-0.298-4.181-3.312-6.021-5.217-2.397 1.903-4.424 7.482-8.429 5.217 2.192-5.753 5.997-10.01 6.823-17.258 0.21-1.838-0.153-3.772 0-6.021 0.58-0.225 0.98-0.627 1.21-1.205z" fill-rule="evenodd"/>
<path clip-rule="evenodd" d="m215.15 93.92c0.494 0.175 0.824 0.514 0.803 1.204-0.648 0.113-0.691-0.379-1.204-0.401 0.07-0.326 0.4-0.401 0.4-0.803z" fill-rule="evenodd"/>
<path clip-rule="evenodd" d="m294.22 108.77c0.691-3.188 4.368-3.392 5.619-6.021 2.224 0.854 2.039 4.116 4.816 4.415 0.141 2.433-3.858 3.323-4.816 1.204-1.62 0.4-3.53 0.5-5.62 0.41z" fill-rule="evenodd"/>
<path clip-rule="evenodd" d="m142.5 115.59c-2.652 3.79-11.08-0.228-11.238-4.816 2.328-1.033 3.065 0.67 4.816 2.007 2.51 0.57 5.52 0.64 6.42 2.81z" fill-rule="evenodd"/>
<path clip-rule="evenodd" d="m104.78 122.42h0.803c1.946-0.549 2.583 1.381 4.415 2.007 5.1 1.743 12.278 0.757 16.456 2.408-0.088 2.856-8.723 4.114-12.844 3.612-4.65-0.57-8.35-4.36-8.84-8.03z" fill-rule="evenodd"/>
<path clip-rule="evenodd" d="m90.326 134.86c3.888-0.415 10.581 2.104 14.048 0-1.006-1.804-3.853-1.767-3.612-4.816 1.766-0.804 5.564 0.884 7.225-0.803 0.865 1.677 3.769 1.315 4.816 2.81 0.018 5.77-5.068 6.438-8.428 8.83-5.711-0.98-11.912-1.46-14.044-6.02z" fill-rule="evenodd"/>
<path clip-rule="evenodd" d="m89.123 139.27c2.032 0.91 4.346 1.541 7.224 1.605 0.302 6.521-7.101 3.261-8.027 0-0.293-1.1 0.797-0.81 0.803-1.61z" fill-rule="evenodd"/>
<path clip-rule="evenodd" d="m86.714 145.29c2.463-0.056 4.682 0.134 6.02 1.204-0.047 5.24-6.342 2.77-6.02-1.2z" fill-rule="evenodd"/>
<path clip-rule="evenodd" d="m90.326 152.12c0.496 1.299-1.298 0.307-0.803 1.605-2.673 0.297-4.437-2.113-4.013-3.613 1.297-0.46 4.655 0.04 4.816 2.01z" fill-rule="evenodd"/>
<path clip-rule="evenodd" d="m87.918 155.73c-0.409 0.93-0.808 1.869-2.007 2.008-1.262-0.344-1.665-1.547-2.007-2.811 1.038-0.75 3.5-0.23 4.014 0.8z" fill-rule="evenodd"/>
<path clip-rule="evenodd" d="m85.109 159.34c-0.313 3.649-7.594 3.878-10.436 2.408 1.81-2.338 6.875-1.42 8.429-4.014 0.996 0.2 1.43 0.98 2.007 1.6z" fill-rule="evenodd"/>
<path clip-rule="evenodd" d="m64.639 160.14h0.803c2.213 0.221 3.165 2.486 5.619 3.211 3.899 1.15 8.07-0.29 11.64 0-0.403 2.138-2.009 3.074-3.211 4.414-7.214-0.27-14.323-0.65-14.851-7.62z" fill-rule="evenodd"/>
<path clip-rule="evenodd" d="m278.16 59.804c-0.878 2.294 1.501 9.38-3.612 9.231-1.049-1.25 0.428-2.544 0-4.415-2.062 0.352-3.448 4.843-4.014 8.027-3.997 3.361-6.904 7.812-8.83 13.245-0.193 1.933 2.491 0.987 2.81 2.408-3.278 4.121-7.61-2.054-6.021-6.021 0.091-1.114 1.272-1.135 1.605-2.007-0.735-1.94-3.254-2.097-2.81-5.217 1.087-0.969 1.427 1.242 3.211 0.802 3.613-0.185 4.72-4.678 3.211-7.625-0.483 1.523-0.836 3.177-1.605 4.415-1.96 1.003-6.45 2.207-6.021-2.007 1.568-0.125 1.935 2.28 3.612 0.803 1.062-1.833-1.465-1.839-2.007-3.211-4.532 2.6-11.727 2.87-16.055 0-5.518 2.144-10.079-0.679-12.441-4.014-0.592 5.639 8.25 6.734 12.843 4.415 1.476 1.736 3.749 2.673 7.225 2.408 1.414 2.669 1.262 7.735 1.204 11.238 0.91 2.068 3.192 2.662 4.014 5.218 0.607 1.888-0.093 4.586 0.803 6.823 2.033 2.251 5.56 5.139 4.014 9.632 0.162 1.577 1.765 1.714 2.007 3.211-1.271 4.269 2.553 5.688 2.007 10.435 2.188 3.564 10.604 0.901 12.442 4.816 2.479-0.846 6.565-1.373 8.429 0.401 5.197-0.933 10.613 0.259 15.652 0 1.308-0.067 2.751-0.791 4.014-0.802 0.971-0.01 1.875 0.725 2.81 0.802 4.488 0.372 6.895-2.44 10.436-4.415 0.489-2.587 0.964-5.19 3.612-5.619-1.886-4.742-0.103-11.555 3.612-13.245 1.067-4.686 2.363-9.142 8.027-9.231 1.709-0.866 1.094-2.861 2.006-4.415 1.988-3.385 8.455-6.774 12.844-4.014 1.294 0.814 3.941 5.354 1.204 7.225-2.216 0.075-2.11-2.171-3.612-2.81-4.577 0.64-3.731 6.704-6.823 8.83-0.028 3.889-0.184 6.349-1.605 8.428-1.662 2.431-5.588 2.555-6.021 6.021 5.064 1.552 12.001-5.357 18.463-2.408 1.966-0.442 2.944-1.872 4.415-2.81 13.045-3.089 12.498 21.021 2.007 17.661 0.078-2.465 2.086-2.999 2.81-4.816-0.215-2.729-0.685-5.202-2.81-6.021-5.093 3.13-8.51 9.87-16.456 8.83-1.948 0.174-2.263 1.996-4.014 2.81-2.931 1.364-7.457 0.347-8.829 3.211 0.736 1.49 1.01 2.953 0.803 4.415-0.186 1.307-1.841 2.331-3.612 4.816-1.185 1.66-1.279 4.106-4.415 4.014-1.481 0.927-1.904 2.912-3.211 4.014-0.202 2.075 1.727 2.02 1.204 4.414-0.071 1.937-2.059 1.956-2.81 3.211 0.12 2.557 2.294 3.058 4.014 4.014 1.903 0.031 1.118-2.627 2.81-2.809 1.815-0.617 3.063 2.461 3.211 4.816-3.695 6.014-16.174 2.537-16.055-4.816-2.88-1.134-5.191-2.836-5.619-6.422 2.399-2.639 0.905-6.741 2.81-9.633-5.193 0.272-8.192 1.018-12.844 1.204 5.658 5.413-1.919 18.345-8.829 13.646 0.445-2.064 3.547-2.054 4.414-4.414 0.886-2.41 0.247-5.539-2.407-6.823-0.43-1.499 0.996-1.144 0.802-2.408-3.75-0.024-7.755 0.995-11.237 0-1.975 1.472-5.831 2.646-8.429 1.204-2.625 0.408-4.618 2.361-7.225 1.605-1.931 2.484-3.673 5.156-6.823 6.422 0.032 1.741-0.749 3.42-1.605 4.414-1.194 1.387-3.298 1.424-4.816 2.408-1.812 1.176-2.263 2.937-4.014 3.613 1.518 5.053 4.491 8.342 7.626 12.04 0.498 6.059 7.276 5.835 8.83 10.837 2.816 1.197 4.487 3.539 5.619 6.422 5.396 2.764 8.917 7.404 11.64 12.844 3.54 0.473 5.723 2.304 6.823 5.217 2.758-1.623 6.38 0.208 9.23 1.605 4.442-0.403 10.985-0.747 14.851-0.401 2.751-1.24 4.582-4.142 8.429-4.414 6.298-0.447 11.144 5.346 5.619 10.033 2.469 2.523 6.15 4.064 5.619 8.429-0.479 3.926-6.843 6.69-9.633 2.408 0.957-0.647 2.908-0.303 3.211-1.605 0.086-5.106-7.206-3.905-8.83-1.204 0.62 5.14-6.429 6.619-9.231 3.612-1.439-0.102-1.471 1.205-2.81 1.204-5.401-0.461-9.141-7.725-15.251-3.612-4.854-0.6-7.845 2.062-12.844 2.408-2.659-1.322-3.098-2.091-6.422-1.204-0.803 0.214-1.051 0.847-2.007 1.204-1.293 0.484-3.088 0.078-4.415 0.401-4.247 1.034-7.8 3.311-11.64 1.204-1.282-0.703-1.543-2.547-2.81-3.612-1.217-1.024-3.082-1.574-4.414-2.81-1.483-1.375-4.948-2.514-6.823 0-0.362 2.637 0.464 4.085 1.605 5.218 1.501 0.81 2.075-1.065 3.211 0.401-0.136 2.822-3.783 2.721-5.619 2.007-2.761-1.073-3.669-5.511-3.211-9.231 2.366-4.479 11.518-9.385 16.455-4.014 2.685-1.637 6.853-0.615 8.429 1.204 2.362-3.123 5.281-5.689 8.429-8.027 0.093-2.901-3.673-1.945-2.81-5.618-0.893-0.312-2.177-0.232-2.408-1.204-3.296 6.277-12.127 9.249-18.863 5.218-2.85-1.706-7.47-5.146-6.823-10.034 2.988-0.581 2.807 2.009 4.014 3.211 1.322 1.487 3.309 2.311 4.815 3.612 1.486-0.236 2.678 0.319 4.014 0 2.805-0.672 5.015-5.729 4.816-7.626-0.177-1.703-1.608-2.679-2.81-3.612-4.315 0.001-8.004-3.648-10.033-7.225-6.502-0.723-10.114-4.335-10.837-10.837-1.035-1.507-3.917-1.167-4.415-3.211-3.019 0.032-6.702 0.477-8.429-1.604-5.29 2.665-12.18 0.293-16.055-1.605-2.71 2.061-4.957 0.521-8.829 0-3.032-0.409-5.353 0.183-6.823-1.605-3.83 1.832-7.503-1.65-10.034 0-0.804-0.803-2.505-0.707-3.211-1.605-3.654 2.69-9.367-0.04-12.442-1.605-1.381 1.294-2.478 2.873-5.218 2.809-1.458 1.752-2.685 3.737-4.415 5.218 0.749 2.692-0.019 5.698-2.007 7.626 0.646 0.96 1.321 1.891 1.204 3.612-0.75 0.722-0.561 2.382-2.408 2.007 1.824 4.515-1.252 8.885-5.218 10.034-0.703 0.902-0.954 2.257-1.605 3.211-2.95 0.261-4.318 2.104-5.218 4.415 2.726-0.21 4.804-2.696 8.027-3.211 0.837-0.134 1.864 0.283 2.81 0 4.946-1.482 8.185-6.099 15.653-4.014 1.981 2.701 7.811 1.554 8.027 6.021 4.26-0.647 5.647 1.577 7.626 3.211 6.168 0.33 8.1-4.507 13.245-4.014 2.43-3.224 6.363-8.154 11.639-7.626 2.052 0.205 2.974 1.445 4.816 2.408 1.284 4.282-1.199 7.041-5.218 7.225 0.149-2.126 2.098-2.452 1.605-5.218-2.448-0.195-3.448 2.783-4.415 4.415-0.916 1.546-3.01 3.694-1.605 6.02 1.779-0.047 3.251-2.47 6.021-3.21 5.692-1.521 13.512-0.516 12.442 5.618-0.386 2.214-2.624 3.209-5.218 4.014-1.147-1.646 1.05-2.798 0.803-4.816-5.178-2.457-6.674 5.86-13.245 4.816 0.433 2.244 4.112 1.24 4.816 3.211 3.105-2.428 9.512-3.311 13.245-0.803-0.232 2.074 1.807 2.753 2.007 4.014 0.143 0.896-1.772 2.245-0.401 3.612-3.216 1.896-5.594 6.677-10.436 5.619 0.973-2.907 4.685-3.075 5.619-6.021-0.962-1.235-0.703-1.604-1.605-2.408-2.705-0.029-3.224 2.128-4.816 3.211-3.963 1.038-8.172 4.616-13.244 4.014-2.331-0.277-4.341-1.564-6.021-3.211-3.774 0.202-6.851-0.815-10.436 0.803-1.122 0.507-1.731 1.656-2.81 2.007-6 1.949-9.057-2.812-13.245-5.218-1.778 0.095-2.656 1.091-3.211 2.408-0.111 1.583 2.827 0.116 3.211 1.204 1.048 1.341-0.77 2.499-1.605 3.211-3.274-0.873-6.694-1.601-6.823-5.619-3.029-2.188-5.812-4.623-10.837-4.816-1.553 1.334-2.275 4.574 0 5.619 2.259 0.521 1.754-1.724 4.014-1.204 0.796 10.16-13.455 6.298-12.843-1.204-3.382 1.301-4.93 4.436-10.034 4.014-3.064 2.17-7.293 4.497-13.646 3.612-0.746-0.104-1.642-0.79-2.408-0.803-5.979-0.1-23.302 4.343-21.673-4.816 0.807-4.537 7.161-5.479 7.225-11.238 0.024-2.185-1.86-3.149-0.803-5.619 2.604-0.598 1.392 2.621 2.408 3.612 1.856 4.899 13.987 4.807 16.857 0.803-1.526-1.685-5.064-1.357-6.823-2.81-0.343-1.279 0.35-1.523 0.803-2.006-13.249 2.721-27.563-6.412-27.292-20.871 1.723 0.15 2.322 1.424 2.007 3.612 1.249 3.567 3.684 5.949 6.823 7.626 2.861 0.052 5.677 0.058 8.027-0.401 1.562 2.755 4.775 5.877 8.83 4.816-0.642-1.499-2.7-1.581-4.816-1.605-0.484-2.058-2.805-2.279-2.81-4.816-4.743 2.461-10.31 0.786-12.843-2.007-4.91-5.414-1.94-14.688 1.204-20.068 2.569 0.694 0.51 3.192 0.803 4.816 0.269 1.488 1.714 3.636 2.81 5.218 0.935 1.351 1.091 1.069 2.007 2.007 0.316 0.324 1.86 1.587 3.211 1.204 1.055 5.65 8.124 9.142 13.646 5.619 1.831-0.493 1.268 1.407 2.408 1.605 1.475-0.131 2.221-0.99 3.612-1.204 0.402 0.534 0.662 1.211 1.204 1.605 0.045 2.186-1.329 2.952-2.408 4.014 2.128 3.421 7.3 5.723 12.843 4.415-0.346-1.984-2.868-1.483-4.415-2.408-2.691-1.61-5.037-4.584-3.612-7.626 1.682-0.344 0.879 1.797 1.605 2.408 1.887 2.751 5.766 5.351 9.633 4.816-1.49-1.021-4.25-1.609-6.021-3.211-1.522-1.377-4.035-4.282-1.605-6.021 1.759 5.124 12.064 10.917 16.055 4.014-5.044-1.244-10.172-2.404-11.238-7.626 3.924 0.291 7.106 5.112 11.238 5.218 0.659 0.017 4.099 0.229 4.014-2.007-4.758-0.995-9.904-1.602-13.245-4.014 2.667-3.154 8.583 1.992 12.442 1.204 3.424-0.7 5.783-4.476 4.013-9.231-3.978-0.258-12.141 0.433-12.843-4.415 4.145 0.646 9.871 3.903 13.646 1.204-1.339-0.973-3.007 0.403-5.217 0-2.524-0.46-8.454-3.557-7.626-6.422 3.385 1.641 8.939 6.912 12.442 2.408-5.921-1.051-9.074-6.959-9.231-12.441 4.485 1.756 2.371 10.242 9.632 9.633-0.438-1.667-2.397-1.788-3.612-3.211-1.741-2.039-3.954-7.254-2.81-10.035 2.539 1.342 2.337 5.423 3.612 8.027 1.81 0.95 3.751 3.168 6.421 2.008-0.553-2.264-2.095-3.902-2.007-6.422 0.096-2.736 2.218-5.975 2.81-8.429 4.474 3.185-4.091 10.835 1.605 13.245-1.476-5.412 0.795-10.039 1.605-14.449 4.017 1.642-1.002 8.429 0 12.041 0.767 2.762 4.239 3.697 6.422 0.803-0.415-1.233-0.497-2.523-0.401-3.613 0.131-1.502 1.127-2.248 1.605-3.611 0.819-2.335 0.47-5.066 2.007-6.823 4.184 3.505-3.856 10.229-0.401 13.245 1.246-2.902 1.88-6.415 3.21-9.232 0.491-1.994-1.062-3.816 0.401-4.414 4.121 3.285 0.095 9.195-0.803 13.244 0.623 3.594 5.727 2.484 8.027 2.408 0.801-5.193 5.304-8.462 4.014-14.448 0.169-0.768 0.146-1.728 1.204-1.605-4.877-2.381-7.499-0.005-14.85-0.401-2.335-1.52-3.354-6.68-1.204-9.231-1.442-0.431-2.027-1.719-2.81-2.81-0.58-2.022 1.456-2.758 0.401-4.014-2.82 0.556-2.514 6.21 0 6.823-2.223 3.31 1.043 5.885 1.204 9.231-3.852-0.085-7.916 2.562-11.64 2.007-3.632-0.542-7.168-5.671-5.218-10.034-2.721-0.815-4.027-6.494-1.605-8.83 5.124 0.041 9.199-0.969 11.238-4.014-2.84 0.639-4.363 2.595-7.225 3.211-2.739-1.442-4.494-0.154-6.823 0.803 0.462 2.414-1.218 7.445 2.408 9.231-2.642 4.606 2.34 6.849 3.21 10.436-0.781 2.028-3.197 2.421-5.217 3.21-1.966-1.244-3.324-3.098-4.415-5.217-0.594 0.209-1.012 0.594-1.605 0.803 0.619 2.859 3.629 3.328 4.816 5.619-1.296 2.055-4.836 1.036-5.619-0.803-2.621 0.883-3.675 0.752-7.225 0.4 2.586 2.006 6.546 0.018 9.231 2.811-0.193 1.947-2.111 4.016-3.211 6.822-1.111 2.839-1.125 5.785-4.415 6.422-1.716 0.332-3.686-0.379-5.619-1.203-1.116 3.561-5.828 3.342-8.027 4.815 2.181 2.427 7.38-0.276 9.231-2.81 2.152 1.01 5.686-0.154 6.823 0 1.304 3.359 0.952 8.694-0.401 11.64-3.144 3.649-7.485 4.333-12.442 3.612 0.449 1.424 3.466 0.279 4.415 1.204-1.296 3.252-4.276 4.821-8.428 5.218-1.848 0.242-1.132-2.079-2.408-2.408-2.288 0.387-4.246 2.404-6.823 2.408-3.726 0.005-6.844-2.534-7.225-6.422-9.634 0.382-10.792-13.286-5.619-18.863 2.36 4.863 4.441 10.008 10.836 10.836-0.625-1.994-2.964-1.605-4.415-2.81-4.556-3.781-5.396-13.882 0.803-16.456 0.571 4.916 3.11 7.861 7.626 8.83 1.273 1.578 1.209 3.351 4.014 4.014 0.758-1.595-2.462-2.232-1.605-5.217-2.924-0.101-5.812-1.165-7.225-3.211-4.154-6.018 1.368-14.969 6.422-17.66 2.532 1.176 3.226-0.766 5.619-0.803 3.203 4.021 5.872 8.577 12.041 9.633-3.509-3.181-7.879-5.5-10.034-10.034 2.143-1.835 6.021-3.587 8.428-0.803 0.558-3.655-1.578-2.147-3.211-3.612 0.074-3.59 2.347-3.973 6.422-4.415 4.088-0.444 7.188-3.382 10.436-4.014-2.011-2.69-6.073-1.757-9.231-2.81-2.601-0.867-4.67-2.869-6.823-3.611-0.292-1.096 0.798-0.809 0.803-1.605-1.897-1.181-4.224-1.931-4.816-4.416 3.045-1.375 6.458 0.63 10.034 1.205 6.285 1.009 13.434 1.605 21.673 1.605 3.145 0 6.424-0.676 9.231 0.803 0.188 1.793-2.333 0.877-2.81 2.006 2.751 1.299-0.805 5.551 2.81 6.823-3.312-6.97 4.402-10.771 10.836-9.231-2.021 3.303-3.476 8.879 2.007 10.837-0.038-1.874-3.018-3.461-2.81-6.021 0.445-5.452 10.737-3.628 12.844-7.225-1.542-1.3-4.031 1.627-6.422 2.008-2.25 0.357-5.491 0.682-6.021-2.008-4.26 1.498-10.426 2.287-14.85 0.402-0.805-0.853 0.57-1.789 0.803-2.81-1.068-0.671-1.981-1.498-4.014-1.204-4.802-3.493-12.375-4.215-15.251-9.633 2.054-1.298 4.816 1.653 7.225 0-0.765-3.561-4.977-4.934-8.027-6.421-7.973-3.889-16.65-6.911-26.088-10.034-1.692-0.56-3.212-1.481-4.816-2.007-4.593-1.504-9.669-2.112-13.646-4.415-2.233-1.292-4.3-3.507-6.422-5.217-0.85-0.685-2.685-2.075-2.408-4.014 4.063 0.873 8.064 3.512 14.048 4.014 5.631 0.472 11.539-0.068 14.449-2.007-4.43-6.273-12.049-9.357-20.871-11.238-1.111-1.105 0.36-1.676 0.401-2.81-6.542-2.635-14.038-6.116-20.871-9.231-2.237-1.02-3.987-2.539-6.021-3.612-3.64-1.922-8.122-2.805-10.837-5.619-0.374-0.388-0.578-1.7-1.204-2.408-1.152-1.302-4.701-2.808-3.21-5.619 3.919 1.115 8.889 5.596 14.85 3.211-0.2-4.214-4.217-4.612-6.422-6.823-0.06-0.997 0.208-1.666 0.803-2.007-11.955-9.588-27.996-15.086-44.502-20.119-1.417 0.696-4.726 0.31-4.415-2.007 0.523-2.441 3.268-1.805 6.021-1.605 6.002 0.435 14.954-0.227 18.864 2.007 1.439 0.102 1.471-1.206 2.81-1.204 5.241 0.924 9.639 4.333 14.048 6.02 10.501 4.019 21.76 5.093 34.115 7.225 2.902 0.5 7.484 1.521 11.64 1.605-1.8-4.889-9.468-3.911-12.442-7.626 6.76-1.482 13.914 0.417 19.667 2.007 1.226-0.112 0.881-1.794 2.007-2.007 11.833 7.165 27.32 10.676 38.531 18.463 1.235 0.299 0.771-1.102 2.006-0.803 1.208 3.801 4.063 6.92 6.823 9.632 2.563 2.519 5.408 6.436 9.633 6.021-0.687-2.654-1.905-5.067-3.211-7.225-0.591-0.976-1.599-1.995-2.408-2.81-1.759-6.401-6.501-9.821-8.429-16.054 2.349-1.053 2.383 2.713 4.816 2.81 0.455-2.697-2.241-3.52-3.612-5.218-3.015-3.732-5.218-8.903-5.217-14.449 3.823 0.777 5.366 4.579 8.027 6.823 1.235 1.042 3.08 1.752 4.415 2.81 3.587 2.84 7.33 6.257 11.639 8.83 1.294-0.713 1.02-2.995 2.408-3.612 3.925 1.749 7.527 6.802 12.442 8.83 2.795 1.153 7.082 2.258 9.632 0.401-1.271-4.08-4.809-5.894-4.415-11.64 2.506 0.31 4.101 2.538 5.619 4.014 1.599 1.554 3.401 3.131 4.415 5.218 9.23 9.633 14.96 22.767 21.271 35.319 0.132 1.474 0.46 2.751 1.204 3.612 4.194-2.361 4.501-8.61 6.021-13.646-0.505-1.903-2.353-2.464-3.211-4.014 0.638-1.192 1.766-2.336 0.803-4.014-7.229-2.255-12.152-6.118-14.048-14.047 1.931-14.255-6.815-21.267-18.864-22.877 0.184-4.832 6.304-0.924 8.429-0.401 0.813-0.256 0.264-1.876 1.203-2.007 9.603 2.915 16.146 9.14 18.062 19.265 1.075 5.684-0.014 11.978 6.422 12.843 1.331-1.479 1.363-4.255 2.408-6.02 0.14-1.612-1.885-1.059-2.408-2.007-0.562-6.931-3.324-11.66-6.021-16.456-1.141-1.151-2.062-2.476-3.211-3.612-1.062-1.052-2.993-1.815-3.211-3.612 2.197-1.213 4.342 1.332 5.619 2.81 2.849 3.296 5.491 7.709 7.225 12.442 0.94 2.567 1.152 5.272 2.408 7.626 2.855-4.25-0.143-6.452-2.007-10.436-1-2.137-1.59-4.651-2.408-6.02-1.576-2.638-5.463-3.409-5.218-6.422 1.637-0.344 3.454 1.096 4.415 2.007 1.635 1.55 3.358 4.397 4.415 6.823 1.103 2.532 1.255 6.162 4.014 7.225 1.555-1.266 3.463-1.54 4.415-3.612 1.955-4.255-0.599-12.534 5.619-12.442 0.005 0.797 1.095 0.51 0.803 1.605 0.244 1.85-1.779 1.432-2.408 2.408-0.941 2.938-1.457 6.303-2.007 9.632-1.504 1.573-3.527 2.627-4.816 4.415 1.344 0.86 2.598-1.128 3.612-2.007 2.823-2.446 2.903-3.533 4.014-8.83 0.523-2.498 5.312-10.399 7.224-6.02-1.871 1.767-4.215 2.824-5.217 6.02-0.684 2.176-0.208 4.848-1.204 6.823-1.058 2.097-2.963 2.424-4.014 4.415-1.683 0.323-3.592 1.187-2.408 3.211 2.585-1.428 4.637-3.391 6.823-5.218 2.214-6.545 3.974-16.26 11.237-16.456 0.553 2.265-2.22 2.602-3.211 3.612-3.855 3.934-4.03 10.777-8.026 15.653 0.796 0.541-0.127 2.802 1.204 2.81 1.103-2.246 3.28-4.151 4.013-7.225 0.355-1.49-1.146-4.161 1.205-4.816 1.456 0.748 0.89 3.03 0.802 4.014-0.29 3.271-2.55 6.271-4.013 8.027-0.397 1.601 1.199 1.208 0.803 2.81 1.424-0.723 2.603-2.876 3.21-4.816 0.956-3.049 0.07-7.093 2.007-8.429 3.687 5.548-4.399 13.683-4.414 17.66-0.012 2.962 3.561 4.467 2.006 7.225-4.356-1.931-2.952-9.623-5.217-13.646-0.704 5.055 1.521 10.694 2.408 14.449-1.139 0.752-2.512-0.906-3.211-1.605-1.584-1.583-3.204-4.328-4.014-6.422 0.917-2.16 2.942-3.211 2.81-6.421-2.052 0.892-1.681 4.206-3.612 5.218-0.259 4.941 3.289 6.076 4.415 9.632-0.788 2.294-3.702 1.7-4.816 1.204-2.763-1.23-3.94-7.01-3.612-10.836-1.026 0.84-1.492 2.805-1.605 4.013-0.32 3.409 1.513 7.116 4.014 8.83 3.064 0.255 4.471-1.148 6.823-1.605-0.602 3.174-4.328 4.572-7.225 3.211-1.817-0.078-1.124 2.354-2.81 2.408-7.314-2.655-4.348-11.217-2.408-17.66-0.189-1.726 1.08-0.514 1.204-1.204-0.043-1.028-0.228-1.914-0.803-2.408-2.062 5.962-5.818 13.154-3.612 20.871 2.417 0.526 3.208 2.679 6.422 2.408-0.176 2.648-3.738 5.368-3.211 8.83 0.268 1.758 1.97 3.898 4.014 4.014 2.428 0.137 1.521-1.356 4.014-1.605-0.371 6.728 6.177 9.717 11.237 6.422 4.698 4.178 11.091 2.535 16.857 0.401 1.282 0.457 0.951 2.528 2.408 2.81 1.126-0.642-0.563-1.807 0-3.211 2.473 0.157 3.283-0.156 5.619 0.401 0.98-1.008-2.192-1.266-2.408-2.408 0.885-1.395 1.341-1.394 2.007-2.408 2.985-0.443 3.622 1.461 5.218 2.408 0.001-1.339-1.306-1.37-1.204-2.81 1.861-0.377 2.774 2.001 2.81-0.803 1.435 0.438 1.791 1.955 2.81 2.81 0.547-7.769-13.857-9.036-18.062-3.612-2.358 0.084-4.764 0.215-5.619-1.204 0.028-4.654 3.461-5.904 7.626-6.421 0.145-2.419-0.947-3.602-0.803-6.021 2.342-0.896 4.621 1.454 4.816 4.014 1.423 0.084 0.793-1.883 2.408-1.605 0.444 0.759 0.512 1.896 0.803 2.81 1.837-1.036 0.688-2.924 0.803-5.218 2.387 0.733 4.029 3.753 3.211 6.422 4.568-2.216-0.768-6.411-0.401-10.436-5.382-0.573-9.552-3.506-16.857-3.211 2.154 3.061 0.643 9.02-5.218 8.429-0.633 0.838-0.277 2.665-0.803 3.612-4.262 1.504-11.852 2.66-11.237-2.81-1.656 0.72-3.273 3.277-2.408 5.218 0.499 1.507 3.691 0.321 4.415 1.605-0.848 2.684-6.385 2.643-4.415 6.823 2.183 0.444 2.115-1.363 4.013-1.204 0.709 0.538-0.656 2.323 0.402 3.211 3.564-0.582 4.642-3.652 8.026-4.415 0.048 1.156-0.219 2.627 0.401 3.211 3.251 4.512 9.162-1.257 12.442-0.401-2.984 4.027-11.843 6.261-14.851 0.803-1.549 0.046-2.584 2.153-4.414 2.408-5.021 0.701-11.973-5.299-6.021-8.83-0.295-1.712-2.186-1.829-2.408-3.612-0.133-3.076 1.65-4.236 2.81-6.021-0.579-4.766 2.828-7.554 6.02-7.225 0.113 3.189-4.634 1.52-4.013 5.218-0.089 1.694 2.085 1.125 2.81 2.007 0.459 1.664-0.845 1.564-0.803 2.81 2.77 0.797 7.326 0.885 8.428-2.007-1.309-1.5-3.863-1.756-4.415-4.014-0.205-1.677 0.225-2.72 0.803-3.612-0.006-1.197-2.974 0.566-2.408-1.204 1.16-2.051 5.915-0.507 8.027-1.605-0.662-2.083-2.219-0.421-4.014-0.401-5.806-1.928-3.805-13.846 0-16.456 0.702 4.2-5.084 11.83 0.803 14.449 1.47-0.002 0.589-2.354 2.408-2.007 1.764 0.377 1.354 2.927 4.415 2.007-0.06 0.997 0.208 1.666 0.803 2.007 7.568-1.348 15.047 5.29 22.075 2.007 1.254 0.352 2.119 1.091 3.211 1.605 0.758-2.666 18.149-4.596 12.441-11.639-6.234-7.694-43.2-1.191-42.544-15.653 0.266-5.847 8.946-10.136 15.252-11.639 2.789-0.665 6.555-1.244 8.027-1.204 2.768 0.074 6.595 1.25 10.436 0 0.122 1.215 1.241 1.434 0.803 3.211-4.734 1.167-7.807 4.368-6.823 8.027 2.187 8.141 25.121 6.923 23.278 20.469-0.264 1.943-1.478 2.146-2.007 4.415-5.072 2.286-10.048 4.669-17.258 4.816-1.122 6.103-5.411 9.038-6.422 15.251 1.132 1.169 0.5-1.201 2.007-0.803 3.232 1.997 6.725 4.326 8.027 8.429 0.494 1.558 1.143 4.374 1.203 5.619 0.454 9.232-6.88 19.875-7.224 28.497-0.114 2.862 1.803 8.625 3.612 10.836 2.178 2.663 6.829 7.45 12.843 5.619 2.497-0.76 3.466-2.956 5.218-5.218 5.096 3.678-3.698 9.167-9.231 8.831-2.063-0.126-6.181-2.142-7.625-3.211-4.606-3.411-8.467-10.909-7.626-18.864 1.41-13.119 12.85-26.122 3.23-36.122zm-6.02-56.591c-4.677 0.291-12.703 2.638-11.238 9.231 0.701 3.156 6.358 5.157 9.633 6.021 4.769 1.258 10.092 1.488 14.448 3.211 5.583 2.208 9.581 5.329 12.442 8.027-3.034-10.478-17.462-9.562-27.292-13.245-3.146-2.207-3.27-7.323-0.803-10.435 1.159-0.445 4.678-2.365 3.211-2.81h-0.4zm-67.02 16.054c0.783 5.456 0.086 10.857 2.81 14.047 1.205 1.411 7.168 5.673 8.83 2.81 0.061-1.588-1.738-1.656-2.408-2.007-0.881-0.461-2.322-0.714-3.211-1.605-3.045-3.053-2.617-8.095-3.211-12.041-1.239-8.241-7.134-16.237-15.652-16.857 6.16 3.788 11.62 7.173 12.84 15.653zm49.76-8.027c-0.482 5.753 7.406 8.545 13.245 8.027-5.103-1.453-9.911-3.2-9.231-10.436 0.38-1.225 3.678-3.364 2.007-4.013-2.52 2.013-5.74 3.111-6.02 6.422zm-115.59 47.761c-1.171-2.842-3.853-4.174-4.816-7.224-18.598-5.61-35.569-13.732-52.979-20.871-15.216-6.238-31.095-12.549-45.354-19.265-2.037-0.959-3.988-2.853-6.021-3.612-1.215-0.454-3.111-0.513-4.415-0.802-1.267-0.282-2.612-1.141-4.014-0.401 39.935 16.661 73.341 39.849 117.6 52.175zm-116.79-49.367c-0.498-1.387-3.529-2.34-4.816-1.605 1.579 0.561 3.174 1.107 4.816 1.605zm165.76 39.735c-17.181-11.851-32.873-25.191-47.361-39.735-0.096-0.616-0.661-0.059-0.803 0.401 1.784 2.747 4.542 7.559 6.823 9.633 1.717 1.562 4.175 2.525 6.021 4.014 1.84 1.484 3.465 3.206 5.217 4.816 10.588 9.732 22.396 19.166 32.109 28.897-0.79-2.555-0.54-6.152-2.01-8.026zm-134.46-22.877c4.407 3.536 8.245 7.179 12.843 10.034 4.845 3.007 9.876 5.263 15.252 8.027 19.912 10.238 41.07 21.383 67.027 23.68 0.005-1.296-1.322-1.086-2.007-1.605-0.7-0.532-0.973-1.469-1.605-2.007-2.867-2.438-4.4-2.891-8.429-4.014-4.291-1.196-7.877-2.673-11.639-4.014-15.73-5.604-29.914-11.486-44.149-18.462-19.089-9.361-36.205-20.141-55.775-28.095-0.472 0.063-1.139-0.069-1.204 0.401 10.531 4.396 20.988 9.063 29.701 16.055zm58.997 15.251c8.156 3.189 16.445 6.753 25.286 8.83-0.154-2.026-2.745-2.375-4.013-2.81-13.044-4.473-24.986-8.177-37.327-13.245-6.698-2.75-13.255-6.089-19.667-9.231-4.899-2.401-10.364-4.465-14.85-6.823-1.464-0.77-3.039-2.313-4.415-2.81-2.405-0.867-5.413-0.887-8.027-1.605-2.891-0.794-6.871-2.546-8.428-2.007 23.747 10.393 47.391 20.3 71.434 29.701zm18.87-4.014c0.494 0.208 2.304 2.354 2.81 0.401 1.474-2.596-2.154-2.639-3.211-3.211-8.164-4.414-16.122-9.035-24.082-13.245-3.197-1.691-7.332-5.29-10.436-6.021-2.587-0.609-6.962-2.854-10.034-2.007 15.83 6.161 29.8 17.721 44.95 24.083zm-27.7-20.469c-1.33-0.16-2.549-2.511-3.612-1.605 1.41 0.081 2.49 2.571 3.61 1.605zm20.07 18.864c-11.232-6.217-21.739-13.251-33.313-18.864-0.022-0.422-0.514-0.316-0.401 0.401-0.001 0.403 0.325 0.478 0.401 0.803 12.668 6.852 26.444 15.193 38.932 22.075 1.387 0.764 3.83 2.771 5.619 1.605-3.41-2.702-7.48-3.937-11.24-6.02zm-58.197-18.061c22.197 10.982 45.544 20.814 70.639 28.898-0.636-2.706-3.747-2.701-5.619-3.612-1.908-0.929-4.106-2.162-6.021-3.211-9.773-5.354-19.369-11-29.299-16.857-2.145-1.265-4.374-2.971-6.021-3.211-1.638-0.239-3.578 0.5-5.217 0.401-6.226-0.377-12.158-2.663-19.266-3.211 0.049 0.49 0.124 0.95 0.806 0.803zm104.76 15.653c4.378 2.532 7.933 6.629 11.64 9.231 2.555 1.794 5.102 4.024 8.83 4.014 0.667-4.267-3.511-5.354-6.021-6.823-8.243-4.827-15.724-10.575-22.075-16.857-4.311-0.641-7.374-4.663-10.435-5.218 5.46 5.773 12.44 10.036 18.06 15.653zm-61.41-12.843c4.192 2.368 8.384 4.881 13.245 6.422 1.254 2.119 3.939 2.547 6.021 3.612 2.175 1.114 4.17 2.918 6.823 3.211 0.307-3.301-3.529-4.462-5.619-5.619-7.684-4.253-16.588-6.76-24.082-10.436 0.51 1.513 2.33 2.085 3.61 2.81zm77.46 13.646c-0.742-0.666-1.569-1.181-2.409-2.007-0.692-0.681-1.252-1.828-2.006-2.408-3.151-2.424-7.548-2.661-11.238-4.816-2.677-1.563-4.284-3.79-6.823-5.218-0.085-0.485-0.445-0.247-0.803 0-0.017 0.552 0.189 0.881 0.401 1.204 5.473 5.592 12.514 10.598 18.864 14.85 2.139 1.433 4.747 3.619 7.626 2.81-0.05-1.939-2.23-3.177-3.61-4.415zm35.72-10.436c3.331-0.923 1.826 2.99 3.211 4.014 0.21-3.555-0.463-6.227-2.408-7.626-0.63 0.839-0.27 2.665-0.8 3.612zm-66.22 7.225c3.606 2.646 6.806 5.658 10.034 8.83 6.255 6.147 13.778 11.74 18.463 18.864 1.672 2.543 2.671 5.364 4.816 7.626 0.781-1.493 0.965-3.584 1.204-5.619-6.756-7.033-14.308-13.241-21.272-20.068-3.437-3.369-7.249-6.299-10.837-9.633-3.566-3.313-7.261-7.171-12.041-8.83 2.12 3.827 6.13 6.252 9.64 8.83zm71.44-7.225c-0.202 1.673 1.173 1.77 0.803 3.612 1.231-0.919 2.683-3.726 2.007-5.218-0.62 0.856-1.78 1.161-2.81 1.606zm-78.26 6.823c5.479 3.351 9.643 8.017 15.653 10.837-4.558-5.744-11.167-9.436-16.857-14.047-0.005-0.405-0.704-0.505-0.803 0 1.05 0.685 1.24 2.24 2.01 3.21zm34.51-2.407c1.504 2.91 4.191 4.639 6.422 6.823-0.796-3.352-2.62-5.675-4.415-8.027-0.27 0.792-1.06 1.069-2 1.204zm109.17 6.822c1.436-1.241 2.589-2.763 2.408-5.619-0.524-0.316-2.124-1.57-2.408-0.802 1.97 1.846-0.49 5.127 0 6.421zm-101.14-1.605c1.553-0.214 1.96 0.717 3.612 0.401 0.138-2.545-2.392-2.424-4.414-2.81-0.19 1.263 0.57 1.57 0.8 2.409zm-66.22 32.51c-23.015-8.5-49.728-20.131-69.034-34.116 1.125 2.415 0.559 3.976-0.401 6.021 23.413 9.093 43.46 21.556 69.435 28.095zm36.12-20.068c-1.431-4.857-5.072-7.503-8.83-10.034-0.005-0.405-0.704-0.505-0.803 0 3.06 3.489 3.5 9.612 9.63 10.034zm-83.484 4.014c20.336 9.728 40.731 19.816 65.02 24.483-0.464-4.388-5.465-3.18-8.027-3.612-7.761-1.312-15.205-4.228-22.477-6.823-17.78-6.346-35.251-14.758-51.374-22.075-3.294-1.495-6.762-3.438-10.436-3.612 8.736 4.243 17.883 8.074 27.296 11.639zm166.56-7.626c0.431-1.443 1.116-2.63 2.007-3.612-1.42 0.201-3.25 2.087-2.01 3.612zm-195.46-2.007c2.195 1.418 5.067 2.721 7.626 4.014 5.419 2.737 10.587 5.266 16.054 7.626 2.663 1.149 6.692 2.019 8.83 3.21 1.745 0.973 2.527 2.974 4.415 3.612 2.91 0.984 5.732 0.445 8.428 0.803-15.512-6.83-30.799-13.886-46.558-20.469-0.281 1.239 0.771 0.924 1.205 1.204zm199.47 0v0.803c0.567 0.607 1.95 1.268 2.81 0.401v-1.605c-0.86-0.867-2.24-0.206-2.81 0.401zm25.69 2.81c0.128-0.942 1.242-0.898 1.605-1.605h-1.605c0.37 0.747-1.21 1.34-0.01 1.605zm-82.28-0.402c-0.932 0.925 0.742 1.294 0.4 2.81 3.847 0.124 6.581-0.25 9.633 0-0.58-4.181-6.88-2.355-10.03-2.81zm-53.38 5.218c12.973 0.21 21.796 2.095 34.116 2.81-3.032-3.671-9.067-2.111-14.048-2.81-1.63-0.229-3.183-1.008-4.816-1.204-5.543-0.666-11.811-0.371-16.055-1.605-0.39 1.6 1.21 1.208 0.81 2.809zm122.82 4.014c0.267-0.911 1.037-3.366-0.401-3.612 0.24 1.089-0.51 3.184 0.4 3.612zm-70.24 0c-0.022 0.513-0.515 0.556-0.401 1.204 2.715 3.037 10.486 1.019 15.652 1.605-0.71-5.186-12.62-2.046-15.25-2.809zm76.26 2.007c1.688 0.35 1.343-1.333 2.007-2.007-1.18 0.163-1.31 1.373-2.01 2.007zm-4.02 0c1.365 0.027 2.801 0.125 3.211-0.803-1.18-0.284-3.45-1.878-3.21 0.803zm-45.75 8.026c-0.076 0.483-0.723 2.131 0.401 2.007 1.832-0.843 0.187-5.165 2.81-5.218-0.672-1.827 0.113-4.057-0.401-5.217-1.17 1.746-2.41 5.854-2.81 8.428zm42.54-6.823c0.005-0.797 1.095-0.51 0.803-1.605-1.01-0.423-1.77 1.354-0.8 1.605zm-3.61 0.402c1.583 0.512 1.042-1.098 1.605-1.605h-1.605c-0.01 0.534-0.01 1.069-0.01 1.605zm-87.5 3.21c-1.987-0.48-4.434-0.124-6.422-0.401-7.8-1.09-15.775-2.228-22.075-1.204 13.997 2.363 27.146 3.849 42.544 4.014-4.36-1.827-10.58-1.571-14.05-2.409zm32.11 0c-2.427-0.062-5.016-0.735-8.027-0.401-0.402-0.001-0.478 0.325-0.803 0.401-0.467 0.068-0.436 0.635-0.4 1.204 3.94 1.797 9.393 0.339 14.047 0.401 1.142 0.015 2.155 0.822 3.211 0.401-1.19-3.678-5.61-1.943-8.03-2.006zm24.08 3.613c-2.133-0.41-3.053-2.031-4.415-3.211-0.68 2.968 2.65 4.038 4.42 3.211zm-122.01 6.823c0.865 1.058 1.098 2.483 2.007 3.612 12.845 2.303 28.903 3.738 40.136 5.217-1.072-3.569-5.885-2.35-9.633-3.21-15.766-3.623-29.248-10.79-44.952-14.048 3.552 3.387 9.312 4.609 12.432 8.429zm125.63-5.619c0.121-1.058-0.556-1.317-1.605-1.204-0.13 1.058 0.83 1.035 1.6 1.204zm40.94 2.809c0.31-2.718-1.647-3.168-3.612-3.612 0.91 1.494 2.11 2.698 3.61 3.612zm-65.02-2.408c-3.578 0.764-12.4-1.97-13.245 2.007 6.95 1.737 15.33-2.215 17.259 3.612-6.084 0.207-8.886-0.439-14.851-0.401-0.652 2.976 3.038 2.299 5.218 2.408 5.134 0.255 11.034-1.364 12.844 0.401-1.644 3.394-6.429 1.218-10.034 2.408 0.715 4.422 7.038-0.166 9.633 2.809-1.351 2.221-5.951 1.141-8.429 1.204-0.291 1.228 0.692 1.181 0.401 2.408 0.279 1.327 3.201 0.01 3.211 1.605 0.59 1.527-1.794 0.079-1.204 1.605 0.116 1.49 0.454 2.757 1.605 3.211 0.616-0.855 1.783-1.16 2.81-1.605 1.061 1.616 1.179 4.173 2.81 5.218 0.317-1.975-1.599-3.227-0.401-4.816 2.363 1.169 4.104-0.703 6.422-0.803-0.292 1.095 0.798 0.808 0.803 1.605-2.261 1.708-2.488 6.369-6.823 4.816 0.843 3.421 0.521 6.208 1.605 8.83 0.735-1.004 0.321-3.157 2.408-2.809 1.111 1.163 1.638 2.91 1.605 5.217 2.089 2.996 4.58 5.587 7.626 7.626-0.615 4.762 1.747 6.547 3.211 9.231 1.389-0.083 2.136-0.807 3.211-1.203-3.419-1.421-6.158-5.131-4.816-10.035-5.588-1.637-8.797-5.652-8.83-12.843 2.644-3.083 5.076 1.337 9.231 0.401 1.552 2.729 1.381 7.181 3.211 9.632 2.862 1.285 5.538 2.756 10.033 2.408 1.427 2.457 1.791 6.25 1.204 9.633-0.632 0.839-2.237 0.705-2.809 1.605 5.143-0.244 4.076 5.21 4.013 9.23 5.18-0.049 14.3 2.181 16.055-3.612-4.14 1.133-12.646 4.443-14.851 0.401 2.654-1.105 6.005 0.115 8.83-0.401 7.509-1.371 9.944-8.573 4.415-14.047-2.552 2.668-10.033 2.54-14.048 2.408-0.062-1.133 1.135-1.006 1.605-1.605 5.221-0.067 11.493-0.227 13.245-4.816-1.572-1.616-2.868 0.818-4.415 1.605-2.848 1.449-6.782 2.67-10.436 1.605 0.052-2.051 2.264-0.944 3.211-1.204 4.266-1.169 8.697-2.914 10.436-6.422-0.959-2.519-1.411-5.545-4.415-6.02-4.214 1.623-8.305 3.217-13.646 2.007 3.328-3.425 11.187 0.03 13.244-5.619-3.874 2.162-9.879 4.33-14.449 2.408 0.96-2.839 4.788-1.195 7.225-1.605 3.271-0.55 5.34-2.334 6.823-4.014-0.689-2.676-1.514-4.892-3.612-5.218-1.235-0.191-3.455 1.625-5.218 2.007-3.833 0.831-6.534-0.596-9.23 0 0.852 3.295 2.385 5.91 3.612 8.83-1.065 0.386-1.157 1.471-2.408 2.007-0.497 0.212-2.272-0.637-2.007 0.803 1.801 0.677 2.817-0.644 4.415 0 1.353 2.259 2.366 4.857 2.407 8.428-6.17 1.593-9.975-2.58-10.033-8.428 0.98-0.841 0.854-0.574 2.408-0.401-0.66-1.481-2.566-1.715-3.612-2.81-6.148 1.14-10.32-2.292-9.231-9.633 1.866-0.408 4.574 0.025 4.816-2.007-6.646 4.078-9.884-7.727-6.823-13.646 1.681-0.075 1.302 1.909 2.007 2.81 4.201-0.455 5.627 1.865 7.626 3.612 3.008 0.256 2.817 0.135 6.021 0 0.55 1.568 0.647 3.174 0.401 4.014-0.989 3.365-6.861 1.837-6.823 4.415 1.384-0.445 4.124-0.277 5.619-1.605 0.683 0.788 0.937 2.006 2.007 2.408 1.576-2.008 4.287-0.229 6.421-0.401 3.629-0.292 7.021-1.791 7.626-5.218-2.061 0.562-4.34 3.237-7.626 3.612-2.74 0.313-6.011 0.183-7.224-2.408 6.76 0.773 14.317-1.201 13.646-7.625-2.223-0.854-4.727-1.428-6.823-2.408-3.263 1.311-7.119 5.723-12.04 4.415-1.852-0.492-2.177-2.422-4.014-3.612-4.471 1.107-6.675-3.463-6.422-7.225-1.495 0.688-1.664 2.252-3.612 2.81-2.518 0.72-7.737-0.722-8.83-2.408-0.316-2.207 1.922 0.015 1.605-1.605-1.15-0.658-2.07 0.632-2.82 0.793zm-26.9 3.211c-6.084-0.701-15.817-0.952-20.47-0.803-0.873 0.028-1.701 0.827-2.408 0.803-1.823-0.062-3.257-1.346-4.816-0.803-0.096-0.616-0.661-0.059-0.803 0.401 0.824 0.112 0.801 1.072 1.204 1.605 14.84-0.031 27.096 1.322 37.327 0.803-2.3-2.854-6.15-1.56-10.03-2.006zm-44.95 0.402c-1.167 0.07-2.835-1.41-3.612-0.401 0.92 0.179 2.83 1.415 3.61 0.401zm134.06-0.803c0.59 2.766 2.27 1.078 0 0zm-131.25 1.605c1.71 0-3.85-0.579 0 0zm9.63 1.606c-0.704 0.111-2.002-1.13-2.408 0 1.03-0.436 1.92 1.219 2.41 0zm46.96 4.013c-14.104-0.535-30.044 1.867-45.754 0.803 1.23 3.342 5.272 2.868 8.83 2.809 11.229-0.185 26.355-1.709 39.734-2.007-0.41-1.422-1.6-3.212-2.81-1.605zm4.42 0c-0.09 0.759 0.453 0.885 0.401 1.605 1.257 0.187 1.792-0.349 1.605-1.605-0.53-0.515-1.48-0.515-2.01 0zm-56.99 5.218c-11.842-0.924-25.092-2.635-35.721-4.816-3.543 2.477-10.225 1.815-15.251 2.809 16.551 4.575 34.472 6.064 51.374 4.415 2.525-0.246 5.603-0.271 8.027-1.605-2.45-1.68-5.59-0.582-8.43-0.803zm120.8-1.606c1.956-0.71 1.348 0.319 2.81 0.803-0.071-1.385 2.726-2.42 0.803-3.21-0.39 1.609-3.11 0.897-3.61 2.407zm-107.56 5.619c0.996 3.411 6.23 1.876 9.231 1.605 8.576-0.774 17.45-1.619 26.892-2.81 2.296-0.29 4.627-0.989 6.822-1.204 1.875-0.183 4.506 0.752 5.619-1.204-14.88 0.7-31.51 2.398-48.56 3.613zm-30.1 5.62c7.919 0.497 16.94-0.511 22.877-2.007 1.827-0.46 4.22-0.27 5.218-2.007-0.706-4.766-5.617-2.017-8.429-1.605-8.623 1.262-18.27 1.608-26.891 0.803-7.883-0.737-15.309-2.826-22.476-3.211 8.886 1.882 18.686 7.336 29.696 8.027zm213.92 3.612c2.782-2.704 1.367-9.604 8.027-8.429-4.71-4.661-13.06 5.215-8.03 8.429zm-134.45-8.83c-11.799 2.949-24.292 4.185-38.129 5.619-2.493 0.258-7.195-0.474-8.027 3.211 13.058-1.293 28.517-3.612 41.741-6.021 1.875-0.341 4.436-0.469 5.619-2.007-0.57-0.096-0.68-0.66-1.2-0.802zm-50.98 5.218c1.457-0.143 2.492 2.654 3.211 0.803-1.16-0.58-0.773-2.706-2.81-2.408 0.1 0.758-0.45 0.885-0.4 1.605zm-29.29 2.006c6.56 5.048 20.242 5.798 30.102 4.014-0.61-2.467-2.463-3.691-2.408-6.823-8.08 2.763-20.83 3.078-27.69 2.809zm74.65-0.802c-13.903 3.048-28.256 4.982-41.339 6.021 0.98 4.141 4.135 1.674 7.224 1.204 13.089-1.992 30.476-4.606 43.748-7.225-2.12-3.6-6.64-0.657-9.63 0zm134.85 2.006c-2.689-0.103-4.271 2.92-4.815 6.021 1.625 1.585 4.186 2.235 4.013 5.619 5.88-0.5 5.76-11.447 0.81-11.636zm-122.41 0.803c-10.387 1.415-24.118 4.795-36.925 6.823-5.594 0.886-11.274 0.877-15.653 3.612 2.442 1.27 5.411 0.092 8.027-0.401 7.436-1.402 16.698-2.774 25.286-4.415 4.512-0.862 8.673-2.368 12.843-3.211 3.144-0.635 7.225 0.178 8.027-2.408-0.06-0.997-1.36-0.116-1.61 0.001zm1.2 3.211c-17.111 4.385-33.773 7.603-50.973 11.238 2.751 3.087 10.313-0.103 13.245-0.803 9.416-2.247 20.096-3.6 29.299-6.021 3.503-0.921 7.713-1.776 9.633-4.013-0.55 0.01-0.87-0.197-1.2-0.409zm-57.79 0.401c-5.336 1.429-12.391 1.773-18.061 0.803 1.817 1.753 3.356 3.735 2.408 7.224 5.99 0.956 12.561-0.393 17.259-2.007-1.266-1.694-0.369-2.452 0.401-4.013-0.95-0.396-0.67-2.01-2.01-2.008zm42.14 8.031c-1.358 1.787-3.638 1.258-6.02 1.605-3.746 0.547-6.847 2.06-9.633 2.81-1.288 0.347-3.373-0.839-3.211 1.204 6.046 0.086 12.207-2.951 18.462-4.014 3.552-0.604 4.785-1.351 7.225-2.007 3.471-0.933 7.63-0.539 10.034-3.211-5.8-0.31-10.77 3.94-16.85 3.62zm128.44-0.4c2.785-0.11 3.527 1.824 5.619 2.408 1.49-5.52-5.07-7.658-5.62-2.41zm-111.58 4.81c1.21 0.242 1.367-2.604 2.408-1.204 0.632 2.389-1.119 4.033-1.204 6.422-0.227 6.398 4.422 11.61 8.83 14.047-0.001 0.403 0.325 0.478 0.401 0.803-1.688 5.472-0.216 10.353 2.81 13.245v2.408c1.566 0.039 2.119 1.092 2.408 2.408-2.088 3.683-8.647 0.434-10.436 4.414 5.747 3.447 18.951 1.018 16.456-6.02-1.575-0.104-1.492 1.451-3.211 1.204-2.477-0.601-4.047-2.108-3.612-5.619-4.413-1.819-3.27-9.576-2.007-14.048-8.412-2.107-12.247-9.914-8.429-18.864-1.971-0.839-1.051-4.568-2.408-6.021-0.18 2.78-1.7 4.2-2.01 6.83zm-2.41-4.81c-1.165 1.653-4.198 1.007-6.021 1.605-1.389 0.457-2.613 1.604-4.014 2.007-3.145 0.906-6.729 0.631-10.033 1.605-0.925 0.272-1.505 0.999-2.408 1.204-3.008 0.685-7.069 0.062-9.231 2.81 1.689-0.451 4.11-0.171 5.217-1.204 5.589-0.417 12.761-2.397 16.857-3.612 2.52-0.748 5.334-0.986 6.823-1.605 1.988-0.827 4.383-0.391 4.014-2.81-0.41-0.01-0.81-0.01-1.21-0.01zm-54.59 0.4c-4.106 2.315-10.853 1.991-16.456 2.81 3.684 0.895 7.099 3.958 11.238 4.014 3.022 0.041 5.471-2.013 8.83-2.007-0.69-2.11-1.95-3.66-3.61-4.81zm167.77 8.02c2.62 1.125 3.787 3.705 6.021 5.218 1.777-5.347-0.498-10.843-5.619-11.64-2.21 1.47-0.11 3.57-0.4 6.42zm28.1-2.81c1.805 0.847 3.146-1.224 5.218-0.803 1.93 0.392 2.131 2.104 3.612 3.211 2.22-5.21-7.98-8.12-8.83-2.41zm-163.76 33.72c1.933 5.767 0.96 11.571-2.408 15.251-0.954 1.043-2.078 1.74-1.606 3.211 1.706 0.368 1.714-0.961 1.606-2.408 2.84-1.922 4.442-5.997 4.816-10.033 0.137-1.48-1.665-3.706 0.803-4.014 3.05 5.885-0.208 12.94-3.612 16.055 8.973 4.398 14.498-3.927 14.448-12.443 0.11-0.826 1.495-0.377 1.605-1.203-6.174-1.979-5.177-11.216-1.605-15.252-2.208-0.735-2.77-3.117-4.415-4.415-1.337 2.913 1.372 3.538 2.007 5.619-3.591 2.919-2.554 10.118 0.401 12.844-1.546 1.318-3.822 1.354-6.02 0.401-7.092-3.072-8.73-13.855-4.415-20.871-2.438-1.885-4.212-6.267-2.408-10.033-1.064-0.007-2.364 0.223-2.409-0.803 7.534-1.938 18.142-1.503 23.68-6.422-9.697 2.449-22.596 5.341-32.911 6.422 0.708 0.847 1.394 0.697 0.803 2.006 2.249-2.225 6.824-2.334 9.231-0.4-1.067 3.961-0.667 6.836 1.204 9.632-5.41 6.28-0.44 11.89 1.21 16.83zm153.72-34.12c0.213 1.227 1.448 4.923 0.401 7.626 5.325 0.449 9.603-4.055 6.422-8.429-2.79-0.25-4.88 0.2-6.82 0.8zm-166.96 0c-2.423 1.858-8.354 0.208-9.231 3.612 3.799-0.75 7.849-1.249 10.837-2.81-0.8 0-0.52-1.09-1.61-0.8zm32.11 3.21c0.619 1.79 1.367 3.449 3.211 4.013-0.249-1.49-1.643-1.836-1.204-4.013 1.501-0.64 2.646-1.635 3.612-2.81-3.16-0.34-3.11 2.52-5.62 2.81zm133.65 0.4c-0.542-3.368-5.577-2.494-8.026 0 0.727 4.206-1.58 5.377-2.408 8.028 4.23 1.17 10.91-5.12 10.44-8.03zm-180.61-2c-1.866 2.281-7.558 0.736-8.428 4.014 4.02 1.289 7.497-1.292 10.836-2.007-0.18-1.29-0.62-2.33-2.41-2zm40.54 4.01c2.095-0.448 4.523-0.561 6.021-1.605-1.29-0.49-5.9 0.98-6.02 1.61zm-34.92 0.8c3.239 0.028 5.213-1.208 7.225-2.408-2.49 0.72-5.81 0.62-7.22 2.41zm154.52 3.62c3.18 0.297 4.021 2.936 6.823 3.611 2.15-3.775-1.929-7.136-4.816-8.428-0.88 1.39-1.34 3.2-2 4.82zm-131.24-2.81c2.333 0.73 4.337-0.259 7.625-0.4 0.457 1.55 1.185 2.829 2.007 4.014-0.458 3.02-3.385 3.571-2.408 8.026 3.286-1.093 1.265-5.612 4.014-7.626-0.235-2.047-3.248-3.732-1.204-5.619-3.58 0.3-7.21 0.55-10.03 1.61zm21.27 8.83c-2.188 3.477 0.312 6.832 2.007 8.83-1.504 1.306-1.764 3.855-1.605 6.823 1.005 1.27 2.35 2.198 3.211 3.612-0.357 1.917-0.428 4.121-1.605 5.217-0.92-0.627-3.896-0.627-4.816 0 1.027 4.975-0.646 10.461-3.211 14.049 1.934 1.346 6.386 0.916 8.429 0 1.193-3.758 4.361-5.539 5.218-9.633-1.617-0.886-2.676-3.014-1.204-4.816-1.401-1.352-2.467-3.27-1.204-5.218-3.218-2.247-3.723-7.687-0.401-10.436-3.425-0.585-4.64-5.839-2.81-9.231-2.514-0.965-2.439-4.518-3.612-6.822-2.06 2.64 0.43 5.74 1.59 7.63zm28.49-5.62c0.711-0.092 2.01 0.404 1.605-0.803-0.9-0.12-1.5 0.09-1.6 0.8zm-62.61 4.41c1.299 0.496 0.307-1.298 1.605-0.803-0.259-1.48-0.412-3.066-1.204-4.013-1.26 1.3-0.16 2.49-0.41 4.81zm90.71-3.21c-0.942-0.129-1.507-0.635-2.81-0.402-1.784 2.648-0.205 6.199-2.81 8.027 1.858 2.045 0.31 6.41 0 8.83 7.86 0.35 9.5-11.06 5.62-16.46zm48.56 2.81c1.396 1.279 2.273 3.078 2.81 5.218 2.77 0.173 3.648 2.238 6.021 2.81 4.19-6.55-5.75-14.82-8.83-8.03zm-44.95-1.6c1.24 4.736 0.948 10.572-0.803 14.449 7.95 1.82 8.46-16.81 0.8-14.45zm-38.93 2.4c0.112-0.914-0.097-1.509-0.803-1.605-0.11 0.91 0.1 1.51 0.8 1.6zm46.56 0c0.033 2.33-0.054 8.622-0.401 10.436 9.312 1.87 9.11-6.432 6.021-11.238-2.2-0.46-3.66 0.11-5.62 0.8zm15.25 0c-1.876-0.779-4.892-0.377-6.422 0.401 1.48 3.169 1.192 7.207 0 10.436 8.26 3.06 10.58-6.31 6.42-10.84zm3.21 0c0.238 2.22 2.487 6.33 0.803 9.633 7.91 2.68 6.79-12.71-0.8-9.63zm8.43 8.83c4.933 0.709 4.801-6.792 2.408-8.83-1.056-0.416-2.463-0.48-4.014-0.401 1.42 2.19 1.93 5.3 1.6 9.23zm4.82-8.83c2.304 2.471 0.564 8.359 0.401 10.436 6.671 0.801 6.174-7.059 3.612-10.436-1-0.34-3.11-0.78-4.01 0zm-136.47 4.82c-0.159 4.184 4.059 7.401 4.415 10.436 2.258-3.451-2.644-5.865-3.211-9.231-0.39-2.317 1.107-3.633 0.401-6.021-0.51 1.94-1.54 3.02-1.61 4.81zm59.81-2.41c0.113-1.049-0.146-1.727-1.204-1.605-0.12 1.06 0.14 1.73 1.2 1.61zm2 0.81c1.081 1.437 1.309 3.539 3.211 5.218 1.817 1.605 4.002 1.06 4.414 3.211 0.567 2.954-2.934 4.566-4.815 6.823 4.02 2.039 7.73 3.081 13.646 2.007 4.132-3.241 9.274-7.563 8.027-14.851-3.007 0.578-7.923 1.853-11.238 1.204-1.519-0.297-2.848-2.521-3.211-1.204-0.761 6.728-5.955 2.135-8.026 0 0.785-0.75 0.123-1.47 0-2.408-1-0.05-1.24-0.76-2.01 0zm-69.43 11.23c-0.941-4.124 0.759-7.361 2.81-9.633-1.392 0.322-1.543-0.598-2.81-0.401-0.45 2.77-3.56 8.15 0 10.03zm150.91-2.81c2.09 1.134 5.025 0.053 5.619-1.605-0.906-1.503-2.007-2.81-4.014-3.211-0.21 1.93-1.82 2.47-1.61 4.81zm-177.8 0.81c0.798 0.005 0.511 1.095 1.605 0.803-0.09-0.759 0.453-0.886 0.401-1.605-1-0.06-1.95-0.07-2.01 0.81zm169.37 0c-0.451 1.548-0.949 1.854-0.401 3.612 1.552 1.208 5.254 1.664 7.626 0.803 2.71-4.8-2.49-5-7.23-4.41zm-17.66 2.81c1.1 2.088 0.079 5.682 1.204 6.823 1.149-1.526 1.19-4.162 1.605-6.422-0.56-0.61-1.94-1.27-2.8-0.4zm-172.98 3.21c1.933-0.253 3.19 3.281 4.415 1.204-1.986-1.091-3.439-2.715-4.816-4.415-0.29 1.48 0.68 1.72 0.4 3.21zm54.58 11.23c-0.778 1.757-3.599 3.353-2.007 5.619 2.126-0.836 1.36-3.534 2.007-5.219 0.626-1.631 2.295-2.973 2.81-4.816 0.596-2.135-0.397-4.075 1.204-6.02 4.185 4.854-1.774 10.591-2.81 15.252 1.634 1.309 4.005 1.881 7.225 1.605 4.207-3.312 7.151-9.021 6.422-16.055-4.424 1.351-6.289-2.62-8.83-4.415-0.865 0.339 0.15 2.559-0.803 2.81h-4.816c1.17 3.75 1.06 7.98-0.39 11.25zm134.05-7.62c1.613-0.544 1.062-0.125 0.803 1.204 1.973 2.22 6.354 1.762 8.429 0 0.29-2.029-0.442-3.037-1.204-4.014-2.595 1.194-5.094-0.29-7.626-0.401-0.62 0.58-0.35 2.05-0.4 3.21zm-70.23-2.01c1.248 1.482 5.221 6.84 9.23 6.822 2.318-0.009 4.409-1.53 5.619-4.014-5.75 1.45-10.45-2.22-14.85-2.81zm-112.38 0c-1.22 1.35 1.48 1.22 0 0zm75.85 18.47c5.704 0.249 5.735-9.566 6.823-14.049-0.764-0.172-1.008-0.863-2.007-0.803 1.38 5.26-2.22 11.02-4.81 14.85zm20.47-8.03c-1.058 1.905 0.146 2.965 1.204 4.014 0.697 0.689 3.124 1.863 4.014 2.006 7.023 1.131 18.055-5.255 12.041-11.238-2.15 5.24-10.81 5.53-17.25 5.22zm21.27 0c1.267-0.071 2.394-0.282 2.407-1.605-0.528-0.81-1.317-1.358-2.407-1.605v3.21zm77.06 1.6c-3.471-0.276-3.563-3.93-6.422-4.816-1.16 3.11 3.61 5.71 6.42 4.82zm2.41 0.81c-0.123-0.926 1.159-0.446 1.204-1.205-1.01-0.43-2.28 0.84-1.2 1.2zm-86.69 11.64c6.942-0.81 12.192-7.596 6.02-12.041-2.603 4.811-9.951 7.6-16.856 5.619-2.21 5.31 5.51 7.04 10.84 6.42zm-18.87-5.22c0.539 0.264 0.747 0.857 0.803 1.605 1.604-0.134 2.228 0.715 4.014 0.4 0.506-1.367 0.696-3.049 1.204-4.414-2.77-2.45-4.91-0.75-6.01 2.41zm-70.23-1.21c0.227 0.979 0.344 2.064 1.605 2.008 0.209-0.595 0.594-1.012 0.803-1.605-0.82-0.29-1.59-1.26-2.41-0.41zm-4.02 12.45c3.26-0.547 5.509-9.384 1.605-10.837-2.86 2.83-0.93 7.45-1.61 10.84zm98.34 4.81c8.731 0.305 12.666-9.511 5.218-14.851-2.537 4.821-8.375 6.342-16.054 6.021 0.5 4.8 5.63 8.65 10.83 8.83zm-137.67-5.62c0.751 3.798 3.33 5.769 6.823 6.823-1.498-3.051-5.382-3.715-5.218-8.429-3 0.503-5.268 0.765-6.823 1.204 1.59 1.17 2.761 0.26 5.223 0.41zm138.47 8.43c2.565 6.901 16.599 2.459 16.456-2.81-0.062-2.286-3.173-3.842-5.619-4.816-0.75 5.42-6.42 5.9-10.84 7.63zm-97.53-3.21c1.661-0.637 1.2-2.84-0.803-2.81-0.59 0.64-0.83 3.19 0.8 2.81zm-5.62 9.63c3.169-0.442 4.05-3.175 4.816-6.021-0.758-0.044-0.278-1.327-1.204-1.204-1.72 1.89-2.99 4.24-3.62 7.22zm121.61-7.22c-1.678 3.272-4.904 4.995-8.429 6.422 1.272 1.975 2.116 4.476 4.415 4.816 1.144 0.169 5.468-1.338 6.823-2.81 1.103-1.197 1.173-3.264 1.605-4.415-1.5-1.31-1.9-3.72-4.41-4.02zm6.02 6.82c-1.059 3.356-3.993 4.836-7.225 6.021 1.792 4.405 10.67 1.971 12.844-0.401-0.52-3.21-2.39-5.09-5.61-5.62zm-132.05 4.42c1.312-0.159 2.595-0.349 2.81-1.605-0.005-0.53-0.704-0.367-0.803-0.803-1.35 0.11-1.6 1.33-2.01 2.4zm57 4.81c0.967-0.165 0.872 0.732 2.007 0.401 1.272-1.403 2.393-2.959 3.21-4.816 0.8-1.074 2.889-0.858 3.211-2.408-4.55 0.55-7.4 2.79-8.43 6.83zm-43.75-2c4.522 0.285 7.872-0.443 11.64 1.605 0.688-0.649 0.997-1.679 0.802-3.211-3.62-2.27-9.98-0.83-12.44 1.6zm99.13 7.22c6.182 0.429 8.433-3.073 10.436-6.822-1.018-0.722-1.82-1.659-3.612-1.605-0.92 4.17-3.51 6.66-6.83 8.43zm-116.79-7.22c-0.245 2.966-4.567 1.854-6.021 3.612 3.834 1.232 7.576-0.943 8.429-4.014-0.95-0.01-1.18 0.69-2.41 0.4zm31.71 2.81c1.319-0.287 3.021-0.19 3.211-1.605-0.65-2.92-3.64-0.98-3.21 1.6zm107.16 0c-1.467 0.539-4.022-0.01-4.415 1.605 2.909 2.736 10.057 0.473 11.64-2.007-0.304-1.437-0.929-2.55-2.408-2.81-1.18 1.5-3.19 2.16-4.81 3.22zm-161.35-2.41c-1.467 0.004-2.15 0.793-2.81 1.605 1.268-0.064 2.422-0.015 2.81 0.803-0.012 3.332-4.021 2.669-4.816 5.217 3.5 1.791 14.149 3.494 14.85-2.006-4.33-0.89-8.44-1.99-10.03-5.62zm30.51 2.41c-2.591 1.063-5.199 2.495-6.823 4.014 2.183 0.988 4.262-1.323 6.823-2.007 1.015-0.271 2.132 0.226 3.21 0 2.197-0.462 3.757-2.36 5.218-3.211-3.08-1.06-6.1 0.25-8.43 1.21zm7.22 2c1.633 1.712 1.923 4.766 3.612 6.421 2.624-0.283 4.029-1.592 6.422-1.605 1.856-0.01 4.031 2.141 6.02 0.401 0.19-8.12-10.79-9.35-16.05-5.22zm36.93 1.21c2.595 1.824 6.251-1.865 10.034 0 0.6-4.48-8.9-3.7-10.03 0zm-10.04-1.21c-2.662-1.846-6.487-0.104-9.633 0-0.052 4.036 3.536 8.127 8.83 6.02 1.31-1.21 1.45-3.95 0.8-6.02zm-44.15 1.21c1.05 0.112 1.727-0.147 1.605-1.204-1.04-0.12-1.72 0.14-1.6 1.2zm149.71-1.21c-1.376 0.59-2.622 1.852-4.415 2.407-2.023 0.628-4.741-0.116-6.021 1.605 3.485 3.084 14.373 4.609 15.653-1.605-1-1.55-3.35-1.75-5.22-2.42zm-158.54 3.62c1.693 0.145 2.995-1.529 2.007-2.81-1.78-0.18-2.18 1.02-2.01 2.81zm77.07 1.6c0.128 0.942 0.634 1.507 0.4 2.81 4.328-1.291 6.132-5.106 10.436-6.421-4.46-1.12-7.77 2.05-10.84 3.61zm-65.83 0.8c0.553 2.124 3.063 2.288 2.408 5.619 5.555-1 6.748-6.363 12.843-6.823-2.35-6.74-12.14-1.07-15.25 1.2zm44.55-3.61c0.432 2.171-1.088 2.391-0.803 4.415h6.021c0.75-1.123 1.788-1.958 2.007-3.612-1.19-1.63-5.01-1.36-7.23-0.8zm147.7 0.8c-0.535-0.401-1.212-0.661-1.605-1.203-3.658 0.464-8.888 1.13-8.027 4.815 3.15-1.19 6.53-4.85 9.63-3.61zm-204.69 3.21c0.244 0.693 1.904-0.03 2.007 0.803 2.628-1.92 8.546-0.551 10.034-3.611-4.4-2.34-9.3 0.91-12.04 2.81zm66.63-2.8c-0.236 2.439-2.309 3.042-2.408 5.618 1.338 1.254 4.746-0.703 8.027 0 1.23 0.213 2.111 2.103 3.211 1.204 4.42-5.8-3.19-9.59-8.83-6.82zm100.74 1.2c-0.086 0.78 0.29 0.572 0.803 0.803 2.855 1.287 4.929 3.921 8.428 2.408-1.23-2.7-6.24-3.61-9.23-3.21zm29.3 4.41h6.021c0.483-1.255 1.487-1.99 1.204-4.014-3.2-0.72-5.52 1.99-7.22 4.01zm-198.68-2.41c0.915 0.112 1.509-0.097 1.605-0.803-0.7 0.09-2-0.4-1.6 0.8zm191.05-0.4c0.451 1.557 1.222 2.793 1.605 4.415 1.644 0.173 2.571-0.372 3.612-0.803 0.21-3.26-2.51-4.47-5.22-3.62zm-31.31 4.02c-3.401-2.189-7.571-2.708-9.633-4.014-0.329 1.277-2.65 0.561-2.408 2.408 4.323 1.431 7.722 3.784 8.027 9.231 2.235 1.722 6.674 1.188 9.231 0 1.26-2.9-2.15-5.66-5.22-7.63zm20.87-2.41c3.271 0.609 5.337 2.424 9.633 2.007-0.1-3.62-7.75-5.08-9.63-2.01zm-185.42-0.8c-3.204 6.514-13.56 6.883-19.667 3.612-4.239 7.97 7.262 8.426 13.646 6.823 3.468-0.87 5.251-3.495 6.823-3.612 0.185-2.315 2.501-4.328 1.204-6.823h-2zm28.49 3.21c2.74 3.21 10.221 6.336 10.837 0-1.52-3.77-9.36-4.32-10.84 0zm11.64-2.01c1.125 0.214 0.742 1.935 1.204 2.81-0.757 2.187-2.589 3.298-3.612 5.218 4.565 3.312 9.347-3.753 8.429-8.429-1.34-1.23-5.1-1.07-6.02 0.4zm8.03-0.4c1.103 3.479-1.216 6.015-2.408 8.429 6.319 0.639 10.881-2.413 9.231-8.429-1.71-1.23-4.95-0.79-6.82 0zm123.62-0.8c-2.005 0.041-3.3 1.89-5.218 1.204 1.571 3.111 5.483 3.882 6.021 8.027 11.51 0.7 6.8-9.39-0.8-9.23zm-152.12 5.21c0.326-4.298-3.869-6.062-8.429-3.612 2.084 3.394-0.319 8.953-0.401 11.238 2.69-2.05 8.51-3.4 8.83-7.63zm36.93 2.41c2.921-0.825 5.866-1.626 5.619-5.619-0.63-1.376-3.701-0.312-4.816-1.204 0.3 2.84-0.45 4.63-0.8 6.82zm-51.78-6.02c-0.727 7.301-5.885 10.169-12.843 11.238 0.484 2.718 3.469 3.557 5.619 3.612 7.189 0.187 15.364-6.756 11.238-14.449-1.29-0.76-2.38-0.84-4.02-0.4zm65.42 2.01c-1.435-1.753-3.119-2.641-6.021-2.007 0.543 5.227-2.968 6.397-6.422 7.626 3.05 6.03 13.66 1.28 12.44-5.62zm111.58-0.4c-0.505 1.651 0.941 3.914-0.401 6.021 3.375-0.104 6.328-0.629 8.429-2.007 0.73-4.52-4.64-4.93-8.03-4.01zm-34.11 2c-0.236 2.337-0.648 4.229 0.401 6.021 3.037 1.745 8.713 0.498 10.034-2.007-1.03-4.05-6.78-7.27-10.43-4.01zm68.23 4.82c-0.054-5.103-9.996-8.352-14.851-4.816 0.343 1.264 0.744 2.467 2.007 2.81 3.593-3.527 12.417-1.136 10.436 5.218 2.24 0.01 2.41-1.83 2.4-3.21zm-143.69-5.62c0.719 4.064-2.196 4.494-2.81 7.225 5.692 0.793 10.152-1.46 11.238-6.422-1.64-1.82-5.63-1.13-8.43-0.8zm54.59 1.21c2.903-0.301 5.467 2.326 8.026 3.612 0.558-0.513 0.246-1.895 0.803-2.408-1.39-2.7-6.42-3.85-8.83-1.2zm-100.34 9.63c-6.142-2.809-1.396-8.516 1.204-10.837-7.69-1-8.28 11.99-1.2 10.84zm159.34-4.42c0.845 3.257 5.659 2.453 8.027 1.204 1.123 0.75 1.958 1.788 3.612 2.007 7.207-2.162 1.773-11.081-5.619-9.231 0.48 4.5-2.44 5.59-6.02 6.02zm-95.13-3.21c1.045 1.181-0.703 2.659 0.401 3.612 2.026-2.572 7.732-5.208 10.837-2.007 0.009-0.945-0.691-1.182-0.401-2.408-2.84-2.96-8.23-0.97-10.84 0.81zm49.37-2.41c-1.497 0.204-2.582 1.683-2.81 2.81-0.838 4.167 3.937 7.437 8.83 6.021-1.3-3.73-1.25-9.47-6.02-8.83zm-63.01 8.03c5.045 3.199 14.616-0.015 10.836-6.823-1.478-0.528-3.106-0.906-5.217-0.803-0.17 4.24-3.48 5.35-5.62 7.62zm-99.138-4.41h-1.204c-0.96 1.668-3.553 3.555-2.81 5.619 3.135 3.356 11.778 1.72 17.258 1.605-0.205-1.133-0.971-1.705-1.204-2.81-5.775 0.29-11.016 0.05-12.04-4.41zm78.268 0.8c-1.716-0.619-4.487 0.027-5.218 1.605 2.06 1.553 4.217 3.008 7.626 3.211 0.73-1.69-2.69-2.29-2.41-4.81zm-14.05 4.41c-0.291-1.228 0.692-1.181 0.401-2.408h-1.204c0 1.07-0.23 2.37 0.8 2.41z" fill-rule="evenodd"/>
<path clip-rule="evenodd" d="m28.918 60.206c5.17 0.449 8.246 2.992 11.238 5.619 1.654 0.068 0.754-1.794 2.408-0.803 2.296 2.921 3.688 6.747 4.415 11.238 1.239 0.065 2.269-0.948 3.211 0-0.009 2.531 0.42 4.982 0.401 6.422 2.189-0.353 1.785-3.299 4.014-3.612 3.609 2.656 0.477 7.957-0.401 12.041-0.687 3.194-1.385 6.183-2.007 9.231 2.367-0.845 3.414-3.008 4.816-4.816 2.36-0.583 3.28-2.607 6.422-2.408-1.836 6.459-6.227 10.363-8.83 16.054 1.246 1.123 3.467-0.884 4.014 1.204-1.947 4.074-6.823 5.218-7.225 10.837 1.402 0.886 5.542-1.49 6.823 0.4-1.021 2.264-3.713 2.66-5.218 4.415-1.687 1.968-2.067 4.663-4.014 6.422-0.035 1.373 2.443 0.232 2.408 1.605 0.202 1.808-1.845 1.366-1.605 3.211 3.015-1.133 4.211-4.084 8.429-4.014-1.405 6.757-7.822 8.5-8.429 16.054 2.415 0.274 2.633-1.647 5.218-1.203-0.146 4.001-2.99 5.305-2.007 10.436 0.981 0.986 1.74-0.297 3.211 0 0.111 3.5 1.749 5.475 3.211 7.625 2.458 0.801 5.426 2.473 8.83 2.81 2.913 0.288 5.821-0.852 8.027 0.401-0.758 5.129-3.684 8.09-5.218 12.442-5.383 0.991-12.852-1.919-17.258-4.816-1.934-1.271-4.671-3.736-5.619-4.816-1.535-1.748-3.34-5.556-4.415-8.429-0.742-1.982-2.147-3.79-2.809-6.02-1.046-3.524-1.764-7.352-2.007-11.64-0.398-7.019 2.302-14.017 3.612-21.674 0.639-3.734 0.927-7.716 1.605-11.238 0.799-4.15 1.062-10.872 0.803-16.456-0.162-3.474 0.428-7.202 0-10.034-0.338-2.238-1.411-4.694-2.007-6.823-2.165-7.72-7.775-13.804-14.047-18.046v-1.605z" fill-rule="evenodd"/>
<metadata><rdf:RDF><cc:Work><dc:format>image/svg+xml</dc:format><dc:type rdf:resource="http://purl.org/dc/dcmitype/StillImage"/><cc:license rdf:resource="http://creativecommons.org/licenses/publicdomain/"/><dc:publisher><cc:Agent rdf:about="http://openclipart.org/"><dc:title>Openclipart</dc:title></cc:Agent></dc:publisher><dc:title>dragon 2</dc:title><dc:date>2008-02-14T06:22:01</dc:date><dc:description>The Laughing Prince, A Book of Jugoslav Fairy Tales and Folk Tales by Parker Fillmore, 1921</dc:description><dc:source>http://openclipart.org/detail/13901/dragon-2-by-johnny_automatic</dc:source><dc:creator><cc:Agent><dc:title>johnny_automatic</dc:title></cc:Agent></dc:creator><dc:subject><rdf:Bag><rdf:li>animal</rdf:li><rdf:li>clip art</rdf:li><rdf:li>clipart</rdf:li><rdf:li>dragon</rdf:li><rdf:li>externalsource</rdf:li><rdf:li>fantasy</rdf:li><rdf:li>image</rdf:li><rdf:li>media</rdf:li><rdf:li>mythology</rdf:li><rdf:li>png</rdf:li><rdf:li>public domain</rdf:li><rdf:li>svg</rdf:li><rdf:li>woodcut</rdf:li></rdf:Bag></dc:subject></cc:Work><cc:License rdf:about="http://creativecommons.org/licenses/publicdomain/"><cc:permits rdf:resource="http://creativecommons.org/ns#Reproduction"/><cc:permits rdf:resource="http://creativecommons.org/ns#Distribution"/><cc:permits rdf:resource="http://creativecommons.org/ns#DerivativeWorks"/></cc:License></rdf:RDF></metadata></svg>
